<svg xmlns="http://www.w3.org/2000/svg" viewBox="0 0 100 100" fill="none"><!-- Original Lingu welcome mascot, not a Duolingo asset. --><g transform="rotate(-12 50 50)"><path d="M21 32 24 15 38 25Q50 18 62 25L76 15 79 32Q92 42 86 67Q77 88 50 89Q23 88 14 67Q8 42 21 32Z" fill="oklch(72% .2 130)"/><path d="M24 42Q31 30 40 36Q50 44 60 36Q69 30 76 42L74 59Q59 69 50 57Q41 69 26 59Z" fill="oklch(97% .025 130)"/><ellipse cx="37" cy="48" rx="6" ry="9" fill="oklch(32% .055 130)"/><ellipse cx="64" cy="48" rx="6" ry="9" fill="oklch(32% .055 130)"/><circle cx="39" cy="45" r="2" fill="oklch(99% .005 130)"/><circle cx="66" cy="45" r="2" fill="oklch(99% .005 130)"/><path d="m44 58 6 9 6-9Z" fill="oklch(81% .17 80)"/><path d="M37 75q13 10 26 0" stroke="oklch(86% .13 130)" stroke-width="5" stroke-linecap="round"/><path d="M18 54Q2 41 5 59L18 68M82 52q16-20 14-3L83 69" fill="oklch(72% .2 130)"/><ellipse cx="35" cy="92" rx="7" ry="4" fill="oklch(81% .17 80)"/><ellipse cx="65" cy="92" rx="7" ry="4" fill="oklch(81% .17 80)"/><path d="M21 39C19 13 82 13 79 39" stroke="oklch(62% .17 235)" stroke-width="5"/><rect x="17" y="37" width="7" height="17" rx="3.5" fill="oklch(62% .17 235)"/><rect x="76" y="37" width="7" height="17" rx="3.5" fill="oklch(62% .17 235)"/></g></svg>
